<svg width="13" height="17" viewBox="0 0 13 17" fill="none" xmlns="http://www.w3.org/2000/svg">
<path d="M2.2912 1.49726C4.03315 -0.0326511 6.634 -0.397682 8.77587 0.437057C11.8437 1.53752 13.6179 5.17977 12.7671 8.29059C12.394 9.5843 11.6693 10.7331 10.9741 11.8738C10.3407 10.7841 9.44688 9.87954 8.34374 9.2649C9.23753 8.32816 9.84144 6.92977 9.22679 5.67901C8.49136 3.70355 5.59259 3.12379 4.22104 4.76643C2.93269 6.0333 3.30578 8.10539 4.49481 9.29979C3.39435 9.83392 2.55424 10.7438 2.0389 11.847C0.814976 10.3251 -0.164702 8.45163 0.023181 6.43859C-0.0788129 4.53829 0.895498 2.7346 2.2912 1.49726Z" fill="#3869EB"/>
<path d="M4.43042 14.8343C4.83034 12.9984 5.08533 11.1357 5.45841 9.29443C6.09185 9.29712 6.7226 9.29712 7.35603 9.29712C7.74522 11.125 8.02436 12.9743 8.39476 14.8075C7.75059 15.3953 7.23794 16.281 6.41393 16.5789C5.60335 16.2649 5.08533 15.4006 4.43042 14.8343Z" fill="#3869EB"/>
</svg>
