<svg width="14" height="14" viewBox="0 0 14 14" fill="none" xmlns="http://www.w3.org/2000/svg">
<g clip-path="url(#clip0_1043_22)">
<path d="M6.90458 7.76766C7.38125 7.76766 7.76766 7.38125 7.76766 6.90458C7.76766 6.42792 7.38125 6.0415 6.90458 6.0415C6.42792 6.0415 6.0415 6.42792 6.0415 6.90458C6.0415 7.38125 6.42792 7.76766 6.90458 7.76766Z" fill="#313131"/>
<path d="M10.0715 6.66999C9.71467 6.11816 9.25171 5.6494 8.73278 5.31429C8.1587 4.94316 7.52488 4.74695 6.89995 4.74695C6.32654 4.74695 5.76271 4.9108 5.2241 5.23391C4.67483 5.56337 4.17721 6.04467 3.745 6.66433C3.6962 6.73436 3.66933 6.81732 3.66779 6.90266C3.66626 6.988 3.69013 7.07187 3.73637 7.14361C4.09252 7.70097 4.5509 8.1704 5.06173 8.50093C5.63689 8.87354 6.25588 9.06234 6.89995 9.06234C7.52986 9.06234 8.16504 8.86774 8.73669 8.49972C9.25535 8.16568 9.71736 7.69517 10.0728 7.13875C10.1175 7.06868 10.1411 6.98727 10.1409 6.90418C10.1406 6.82109 10.1165 6.73981 10.0715 6.66999V6.66999ZM6.90454 8.19926C6.64849 8.19926 6.39819 8.12333 6.18529 7.98108C5.97239 7.83882 5.80645 7.63663 5.70847 7.40007C5.61048 7.16351 5.58484 6.90321 5.6348 6.65208C5.68475 6.40095 5.80805 6.17027 5.9891 5.98921C6.17016 5.80816 6.40084 5.68486 6.65197 5.6349C6.9031 5.58495 7.16341 5.61059 7.39997 5.70857C7.63653 5.80656 7.83872 5.97249 7.98097 6.18539C8.12323 6.39829 8.19916 6.64859 8.19916 6.90464C8.19876 7.24788 8.06224 7.57694 7.81954 7.81964C7.57683 8.06235 7.24777 8.19887 6.90454 8.19926V8.19926Z" fill="#313131"/>
</g>
<defs>
<clipPath id="clip0_1043_22">
<rect width="6.90463" height="6.90463" fill="white" transform="translate(3.45239 3.45227)"/>
</clipPath>
</defs>
</svg>
